<svg xmlns="http://www.w3.org/2000/svg" width="55" height="54" fill="none" viewBox="0 0 55 54"><path fill="url(#paint0_linear_63_205)" d="M49.563 11.967c-2.915-.503-7.633-.181-13.427-4.333C31.952 4.636 27.981.232 27.981.232s-4.02 4.456-8.155 7.397c-5.678 4.04-10.512 3.83-13.427 4.332.018 3.14-2.563 24.75 11.75 34.63 3.905 2.696 9.808 6.181 9.832 6.17.03.011 5.933-3.474 9.832-6.17 14.313-9.88 11.732-31.484 11.75-34.624Zm-4.281 8.706c-.036 2.912-.316 5.83-.972 8.677-.662 2.865-1.718 5.677-3.34 8.173-1.821 2.807-4.293 4.807-7.117 6.637a143.291 143.291 0 0 1-4.451 2.765c-.462.28-1.093.883-1.652.702-.407-.135-.826-.486-1.184-.702-.637-.386-1.281-.772-1.913-1.163-1.633-1.006-3.279-2.023-4.827-3.14-5.065-3.66-7.604-9.472-8.575-15.342-.407-2.462-.57-4.952-.565-7.443.006-1.433.134-2.865.134-4.298 0-.122.097-.263.224-.286 1.349-.222 2.715-.298 4.05-.573a16.339 16.339 0 0 0 5.563-2.245c2.66-1.69 5.023-3.964 7.111-6.274.104-.117.328-.117.432 0 2.131 2.35 4.548 4.672 7.269 6.379a16.187 16.187 0 0 0 5.556 2.193c1.294.245 2.605.31 3.905.52.151.023.218.129.218.24 0 .011.006.029.006.04-.006 1.714.146 3.427.128 5.14Z"/><path fill="url(#paint1_linear_63_205)" d="M27.969 53a.168.168 0 0 1-.073-.017v-.006c-.134-.053-.395-.205-1.045-.597-.43-.257-1.323-.79-2.465-1.49-1.773-1.088-4.324-2.684-6.382-4.105C12.44 42.944 8.76 36.91 7.054 28.84c-1.372-6.496-1.086-12.577-.953-15.5.03-.602.049-1.082.049-1.38 0-.111.085-.21.2-.234.54-.093 1.148-.163 1.798-.234 2.927-.333 6.94-.789 11.532-4.057 4.068-2.894 8.076-7.32 8.119-7.361a.26.26 0 0 1 .364 0c.043.04 4.008 4.42 8.12 7.367 4.65 3.326 8.592 3.747 11.476 4.057.668.07 1.294.14 1.853.234.115.018.2.117.2.234 0 .298.018.772.049 1.38.14 2.923.419 9.004-.954 15.5-1.706 8.063-5.386 14.102-10.949 17.938-2.058 1.42-4.603 3.017-6.382 4.104-1.148.702-2.04 1.234-2.466 1.491-.65.386-.91.544-1.044.597v.006a.223.223 0 0 1-.085.017h-.012ZM6.636 12.16c-.006.304-.025.707-.049 1.204-.134 2.906-.419 8.946.941 15.383 1.676 7.946 5.296 13.887 10.755 17.652 3.601 2.485 8.872 5.625 9.692 6.092.826-.467 6.097-3.607 9.692-6.092 5.459-3.771 9.078-9.712 10.754-17.652 1.36-6.443 1.075-12.483.942-15.383-.025-.49-.043-.9-.049-1.204-.492-.076-1.044-.135-1.621-.199-2.933-.31-6.96-.742-11.715-4.145-3.637-2.614-7.165-6.332-7.997-7.233-.838.9-4.397 4.66-8.01 7.233-4.694 3.338-8.78 3.806-11.763 4.145-.564.064-1.099.129-1.572.199Zm21.327 35.736a.903.903 0 0 1-.298-.047c-.31-.1-.607-.304-.893-.497a11.49 11.49 0 0 0-.34-.222c-.619-.374-1.263-.766-1.919-1.17l-.109-.07c-1.579-.976-3.212-1.982-4.736-3.081-5.727-4.14-7.877-10.706-8.672-15.494-.389-2.321-.577-4.835-.565-7.478 0-.702.036-1.415.067-2.105.03-.72.067-1.462.067-2.193 0-.216.164-.473.425-.514a35.6 35.6 0 0 1 1.718-.228c.765-.094 1.56-.187 2.326-.34a16.14 16.14 0 0 0 5.484-2.21c2.283-1.45 4.53-3.431 7.062-6.232a.541.541 0 0 1 .4-.164c.159 0 .305.059.402.164 2.58 2.847 4.876 4.865 7.214 6.326a15.933 15.933 0 0 0 5.471 2.158c.705.134 1.44.216 2.144.292.577.064 1.172.129 1.755.222.249.041.413.216.425.45a.23.23 0 0 1 .006.065c0 .8.03 1.613.067 2.403.036.894.073 1.818.06 2.736-.036 3.192-.358 6.046-.977 8.723-.723 3.146-1.858 5.923-3.37 8.25-1.616 2.485-3.765 4.49-7.19 6.707-1.385.894-2.842 1.8-4.458 2.771-.097.059-.2.129-.315.21-.365.258-.802.568-1.251.568Zm.018-41.589c-.012 0-.03 0-.037.006-2.562 2.83-4.84 4.841-7.16 6.315a16.69 16.69 0 0 1-5.647 2.274c-.783.158-1.585.257-2.362.345-.559.064-1.136.135-1.694.228a.108.108 0 0 0-.024.053c0 .742-.037 1.49-.067 2.216-.03.684-.061 1.391-.067 2.087-.012 2.62.182 5.11.559 7.402.783 4.7 2.884 11.15 8.483 15.19 1.512 1.093 3.134 2.093 4.706 3.064l.11.07c.65.403 1.293.795 1.913 1.163.115.07.236.153.364.24.261.176.528.357.771.439.316.105.735-.187 1.105-.45.122-.082.231-.164.34-.228 1.61-.965 3.067-1.871 4.445-2.766 3.365-2.175 5.472-4.14 7.045-6.566 1.481-2.28 2.599-5.01 3.31-8.104.613-2.648.922-5.472.965-8.63a50.04 50.04 0 0 0-.06-2.707c-.031-.795-.068-1.613-.068-2.426 0-.012-.006-.03-.006-.041 0-.006-.006-.012-.018-.012-.57-.093-1.16-.158-1.73-.222-.717-.082-1.458-.164-2.187-.298a16.359 16.359 0 0 1-5.641-2.228c-2.375-1.49-4.7-3.531-7.318-6.42 0 .012-.018.006-.03.006Z"/><path fill="url(#paint2_linear_63_205)" d="m28.042 46.773-.122-.064a.851.851 0 0 1-.11-.07c-.187-.17-.467-.316-.734-.456a8.668 8.668 0 0 1-.419-.228 140.765 140.765 0 0 1-4.39-2.743c-3.189-2.075-5.29-4.122-6.82-6.636-1.36-2.233-2.374-4.893-3.012-7.899-.528-2.485-.79-5.133-.808-8.098-.006-.8.03-1.613.061-2.397.03-.66.055-1.339.06-2.011v-.205l.213-.029c.486-.076.978-.134 1.458-.193.82-.1 1.664-.199 2.483-.38a16.127 16.127 0 0 0 5.205-2.146c2.18-1.386 4.39-3.315 6.752-5.9l.189-.204.188.205c2.41 2.637 4.67 4.595 6.898 5.999a15.72 15.72 0 0 0 5.083 2.075c.79.17 1.616.263 2.405.351.492.059 1.002.117 1.506.193l.212.03v.204c0 .748.013 1.508.025 2.24.036 2.724.079 5.548-.358 8.36-.717 4.613-2.666 10.94-7.956 14.921-1.305.983-2.72 1.86-4.093 2.713l-.497.31c-.644.403-1.3.801-1.944 1.187a6.057 6.057 0 0 1-.45.24c-.303.152-.612.31-.789.49a.435.435 0 0 1-.115.083l-.121.058ZM12.24 16.393c-.006.608-.037 1.222-.061 1.818-.03.778-.067 1.585-.06 2.374.017 2.935.279 5.555.795 8.005.625 2.952 1.621 5.56 2.957 7.747 1.494 2.45 3.547 4.443 6.668 6.478 1.324.865 2.757 1.754 4.378 2.73.116.07.25.14.395.21.249.13.504.264.723.428.23-.188.534-.34.801-.474.152-.076.298-.146.413-.216.644-.386 1.294-.784 1.937-1.187l.498-.31c1.36-.842 2.775-1.72 4.057-2.684 5.155-3.888 7.068-10.086 7.76-14.6.426-2.777.39-5.449.353-8.278-.012-.667-.018-1.357-.025-2.041a50.152 50.152 0 0 0-1.275-.158c-.807-.093-1.64-.187-2.453-.362a16.218 16.218 0 0 1-5.247-2.14c-2.21-1.386-4.445-3.31-6.813-5.876-2.32 2.514-4.506 4.402-6.668 5.776a16.496 16.496 0 0 1-5.368 2.21c-.838.182-1.7.287-2.533.386-.4.053-.82.1-1.232.164Z"/><g opacity=".65"><mask id="mask0_63_205" width="39" height="7" x="9" y="43" maskUnits="userSpaceOnUse" style="mask-type:alpha"><path fill="url(#paint3_linear_63_205)" d="M47.104 47.649c-12.057-5.305-25.05-5.305-37.107 0v1.398h37.107V47.65Z" opacity=".65"/></mask><g mask="url(#mask0_63_205)"><path fill="url(#paint4_linear_63_205)" d="M47.104 47.649c-12.057-5.305-25.05-5.305-37.107 0v1.398h37.107V47.65Z" opacity=".65"/></g></g><path fill="url(#paint5_linear_63_205)" d="m43.133 48.921 9.078 3.019-.92-5.701 3.373-4.273-9.078-3.019-2.453 9.974Z"/><path fill="#000" d="m43.133 48.921 2.267.042c.687.012 1.291-.51 1.477-1.278l.088-.348-3.181-1.056-.65 2.64Z" opacity=".3"/><path fill="url(#paint6_linear_63_205)" d="m52.45 52.438-9.523-3.163L45.478 38.9 55 42.062l-3.506 4.447.955 5.929Zm-9.084-3.45 8.629 2.862-.883-5.473 3.237-4.105-8.628-2.863-2.355 9.578Z"/><path fill="url(#paint7_linear_63_205)" d="M45.436 49.377h-.026l-2.499-.042.713-2.904.34.114-.583 2.382 2.035.036h.02c.594 0 1.12-.462 1.286-1.128l.088-.348.34.114-.087.348c-.207.846-.873 1.428-1.627 1.428Z"/><path fill="url(#paint8_linear_63_205)" d="m11.924 48.987-9.042 3.157.857-5.713-3.424-4.225 9.042-3.15 2.567 9.931Z"/><path fill="#000" d="m11.924 48.987-2.267.072c-.682.024-1.296-.492-1.493-1.254l-.087-.348 3.17-1.104.677 2.634Z" opacity=".3"/><path fill="url(#paint9_linear_63_205)" d="m2.67 52.648.888-5.941L0 42.314l9.486-3.307 2.67 10.334-9.486 3.307ZM.656 42.518l3.284 4.05-.821 5.486 8.592-2.995-2.463-9.536-8.592 2.995Z"/><path fill="url(#paint10_linear_63_205)" d="M46.913 47.601c-12.62-4.765-26.211-4.765-38.826 0l-2.758-9.866c14.412-5.443 29.935-5.443 44.347 0-.925 3.289-1.844 6.578-2.763 9.866Z"/><path fill="url(#paint11_linear_63_205)" d="M9.626 49.48c-.744 0-1.405-.57-1.622-1.405l-.087-.348.34-.12.088.348c.176.672.713 1.128 1.317 1.104l2.034-.066-.614-2.376.34-.12.75 2.892-2.5.084c-.015.006-.03.006-.046.006Z"/><path fill="url(#paint12_linear_63_205)" d="m47.042 48.07-.17-.067c-6.264-2.364-12.775-3.565-19.36-3.565-6.583 0-13.094 1.2-19.358 3.565l-.17.066-2.871-10.262.17-.066c7.188-2.713 14.67-4.093 22.23-4.093 7.56 0 15.037 1.38 22.225 4.099l.17.066-2.866 10.256Zm-19.53-4.04c6.564 0 13.055 1.182 19.303 3.523l2.649-9.47c-7.1-2.659-14.484-4.009-21.946-4.009-7.462 0-14.846 1.35-21.946 4.009l2.639 9.464c6.248-2.334 12.739-3.517 19.302-3.517Z"/><path fill="#755611" d="M41.55 44.48c1.453.445 2.72-.004 3.114-1.295.433-1.416-.597-2.117-1.517-2.733-.946-.635-1.044-.895-.95-1.2.081-.269.393-.434.871-.288.613.187.838.58.92 1.128l1.523-.36c-.187-1.135-.887-1.924-1.986-2.26-1.157-.354-2.476.059-2.87 1.35-.392 1.281.437 2.057 1.347 2.639.92.584 1.252.864 1.126 1.275-.079.258-.348.49-1.075.267-.755-.23-1.053-.73-1.122-1.357l-1.554.361c.072 1.1.766 2.044 2.172 2.474ZM36.342 43.233l1.707.21-1.165-2.732c.812-.294 1.423-1.005 1.527-1.858a2.394 2.394 0 0 0-2.09-2.675l-2.778-.341-.853 6.948 1.588.195.28-2.283.754.093 1.03 2.443Zm-1.394-5.712 1.191.146c.437.054.747.485.684.99-.062.507-.467.85-.903.797l-1.191-.147.219-1.786ZM29.55 42.5h1.75l-2.38-7h-2.04l-2.38 7h1.75l.35-1.1h2.6l.35 1.1Zm-2.47-2.6.82-2.57.82 2.57h-1.64ZM20.218 41.463l-.13-1.233 2.487-.262-.159-1.511-2.486.261-.121-1.154 2.735-.287-.162-1.532-4.326.455.732 6.962 4.376-.46-.161-1.532-2.785.293ZM16.432 36.521l-1.773.41-.689 2.93-1.903-2.332-1.774.41 3.26 3.67.605 2.621 1.559-.36-.605-2.62 1.32-4.729Z"/><mask id="path-21-outside-1_63_205" width="35" height="10" x="10" y="44" fill="#000" maskUnits="userSpaceOnUse"><path fill="#fff" d="M10 44h35v10H10z"/><path d="m13 48.794.708-.146.99 1.84.098-2.06.544-.123 1.045 1.815.044-2.06.708-.147-.134 2.95-.762.172-.883-1.534-.07 1.755-.762.171L13 48.794ZM20.271 49.898l-1.115.144-.085.457-.762.095.569-2.971.87-.12 1.472 2.683-.762.096-.187-.383Zm-.321-.562-.508-.996-.2 1.092.708-.096ZM23.076 49.107l-.326.023.073.941-.68.046-.247-2.826 1.223-.091c.571-.047 1.084.34 1.134.9a.932.932 0 0 1-.47.86l.753.999-.734.07-.726-.922Zm-.376-.537.517-.047c.19-.024.327-.175.302-.404-.025-.204-.187-.358-.378-.334l-.516.046.075.739ZM26.446 48.933l-.326-.003.02.942-.707.02-.085-2.85L26.571 47c.57-.02 1.056.416 1.079.95a.895.895 0 0 1-.55.835l.67 1.023-.761.019-.563-.895Zm-.321-.562.516-.022a.338.338 0 0 0 .33-.378.353.353 0 0 0-.35-.36l-.517.022.02.738ZM30.57 49.476l-1.14-.035-.167.431-.76-.031 1.165-2.814.896.033.9 2.882-.761-.032-.132-.434Zm-.184-.612-.317-1.07-.39 1.039.707.031ZM35.097 47.453l-.35 2.821-.515-.055-.991-1.662-.176 1.525-.679-.082.35-2.82.516.054.991 1.662.176-1.525.678.082ZM38.32 48.626l-.76-.134-.425 2.184-.678-.133.426-2.184-.76-.133.114-.61 2.224.4-.14.61ZM40.534 50.298l-.308 1.066-.678-.159.308-1.065-.5-1.938.76.184.26 1.198.85-.908.76.184-1.452 1.438Z"/></mask><path fill="#18181A" d="m13 48.794.708-.146.99 1.84.098-2.06.544-.123 1.045 1.815.044-2.06.708-.147-.134 2.95-.762.172-.883-1.534-.07 1.755-.762.171L13 48.794ZM20.271 49.898l-1.115.144-.085.457-.762.095.569-2.971.87-.12 1.472 2.683-.762.096-.187-.383Zm-.321-.562-.508-.996-.2 1.092.708-.096ZM23.076 49.107l-.326.023.073.941-.68.046-.247-2.826 1.223-.091c.571-.047 1.084.34 1.134.9a.932.932 0 0 1-.47.86l.753.999-.734.07-.726-.922Zm-.376-.537.517-.047c.19-.024.327-.175.302-.404-.025-.204-.187-.358-.378-.334l-.516.046.075.739ZM26.446 48.933l-.326-.003.02.942-.707.02-.085-2.85L26.571 47c.57-.02 1.056.416 1.079.95a.895.895 0 0 1-.55.835l.67 1.023-.761.019-.563-.895Zm-.321-.562.516-.022a.338.338 0 0 0 .33-.378.353.353 0 0 0-.35-.36l-.517.022.02.738ZM30.57 49.476l-1.14-.035-.167.431-.76-.031 1.165-2.814.896.033.9 2.882-.761-.032-.132-.434Zm-.184-.612-.317-1.07-.39 1.039.707.031ZM35.097 47.453l-.35 2.821-.515-.055-.991-1.662-.176 1.525-.679-.082.35-2.82.516.054.991 1.662.176-1.525.678.082ZM38.32 48.626l-.76-.134-.425 2.184-.678-.133.426-2.184-.76-.133.114-.61 2.224.4-.14.61ZM40.534 50.298l-.308 1.066-.678-.159.308-1.065-.5-1.938.76.184.26 1.198.85-.908.76.184-1.452 1.438Z"/><path fill="#fff" d="m13 48.794-.508-2.448a2.5 2.5 0 0 0-1.655 3.702L13 48.794Zm.708-.146 2.201-1.185A2.5 2.5 0 0 0 13.2 46.2l.508 2.448Zm.99 1.84-2.203 1.184a2.5 2.5 0 0 0 4.7-1.065l-2.498-.12Zm.098-2.06-.55-2.439a2.5 2.5 0 0 0-1.947 2.319l2.497.12Zm.544-.123 2.167-1.246a2.5 2.5 0 0 0-2.716-1.193l.55 2.44Zm1.045 1.815-2.167 1.247a2.5 2.5 0 0 0 4.666-1.193l-2.5-.054Zm.044-2.06-.507-2.448a2.5 2.5 0 0 0-1.992 2.394l2.5.054Zm.708-.147 2.497.113a2.5 2.5 0 0 0-3.005-2.56l.508 2.447Zm-.134 2.95.55 2.439a2.5 2.5 0 0 0 1.948-2.326l-2.498-.113Zm-.762.172-2.166 1.248a2.5 2.5 0 0 0 2.715 1.19l-.549-2.438Zm-.883-1.534 2.166-1.248a2.5 2.5 0 0 0-4.665 1.15l2.498.098Zm-.07 1.755.55 2.439a2.5 2.5 0 0 0 1.949-2.341l-2.499-.098Zm-.762.171-2.163 1.254a2.5 2.5 0 0 0 2.713 1.185l-.55-2.439Zm5.745-1.529 2.247-1.096a2.5 2.5 0 0 0-2.565-1.383l.318 2.48Zm-1.115.144-.318-2.48a2.5 2.5 0 0 0-2.14 2.021l2.458.459Zm-.085.457.31 2.48a2.5 2.5 0 0 0 2.147-2.021l-2.457-.46Zm-.762.095-2.455-.47a2.5 2.5 0 0 0 2.766 2.95l-.31-2.48Zm.569-2.971-.341-2.477a2.5 2.5 0 0 0-2.115 2.007l2.456.47Zm.87-.12L21.94 46.3a2.5 2.5 0 0 0-2.533-1.275l.341 2.477Zm1.472 2.683.31 2.48a2.5 2.5 0 0 0 1.882-3.682l-2.192 1.202Zm-.762.096-2.247 1.096a2.5 2.5 0 0 0 2.558 1.384l-.31-2.48Zm-.508-.946.336 2.477a2.5 2.5 0 0 0 1.891-3.612l-2.227 1.135Zm-.508-.996 2.228-1.135a2.5 2.5 0 0 0-4.687.686l2.46.449Zm-.2 1.092-2.459-.449a2.5 2.5 0 0 0 2.795 2.926l-.335-2.477Zm3.834-.325 1.964-1.546a2.5 2.5 0 0 0-2.137-.948l.173 2.494Zm-.326.023-.174-2.494a2.5 2.5 0 0 0-2.319 2.688l2.493-.194Zm.073.941.166 2.495a2.5 2.5 0 0 0 2.327-2.69l-2.493.196Zm-.68.046-2.49.218a2.5 2.5 0 0 0 2.657 2.276l-.166-2.494Zm-.247-2.826-.186-2.493a2.5 2.5 0 0 0-2.305 2.711l2.491-.218Zm1.223-.091.187 2.492h.014l-.2-2.492Zm1.134.9 2.494-.17a2.188 2.188 0 0 0-.004-.051l-2.49.22Zm-.47.86-1.261-2.158a2.5 2.5 0 0 0-.735 3.663l1.997-1.505Zm.753.999.238 2.488a2.5 2.5 0 0 0 1.758-3.993l-1.996 1.505Zm-.734.07-1.965 1.546a2.5 2.5 0 0 0 2.203.942l-.238-2.488Zm-1.102-1.46-2.487.254a2.5 2.5 0 0 0 2.711 2.236l-.224-2.49Zm.517-.046.224 2.49a2.5 2.5 0 0 0 .086-.01l-.31-2.48Zm.302-.404 2.485-.274a2.106 2.106 0 0 0-.004-.036l-2.481.31Zm-.378-.334.225 2.49.086-.01-.31-2.48Zm-.516.046-.224-2.49a2.5 2.5 0 0 0-2.263 2.744l2.487-.254Zm3.821 1.102 2.116-1.331a2.5 2.5 0 0 0-2.095-1.169l-.021 2.5Zm-.326-.003.021-2.5a2.5 2.5 0 0 0-2.52 2.551l2.5-.05Zm.02.942.068 2.499a2.5 2.5 0 0 0 2.43-2.55l-2.499.05Zm-.707.02-2.5.073a2.5 2.5 0 0 0 2.569 2.425l-.07-2.499Zm-.085-2.85-.083-2.5a2.5 2.5 0 0 0-2.416 2.573l2.5-.074ZM26.571 47l.083 2.498h.007l-.09-2.498Zm1.079.95 2.5.021c0-.042 0-.085-.003-.127l-2.497.106Zm-.55.835-.973-2.303a2.5 2.5 0 0 0-1.119 3.673l2.091-1.37Zm.67 1.023.062 2.5a2.5 2.5 0 0 0 2.029-3.87l-2.091 1.37Zm-.761.019-2.116 1.331a2.5 2.5 0 0 0 2.178 1.168l-.062-2.499Zm-.884-1.457-2.5.07a2.5 2.5 0 0 0 2.602 2.427l-.102-2.497Zm.516-.022.021-2.5c-.04 0-.082 0-.123.003l.102 2.498Zm.33-.378-2.5-.021c-.002.11.005.22.019.33l2.48-.31Zm-.35-.36.02-2.5-.123.003.102 2.498Zm-.517.022-.102-2.498a2.5 2.5 0 0 0-2.397 2.569l2.499-.071Zm4.467 1.843 2.391-.729a2.5 2.5 0 0 0-2.315-1.77l-.076 2.5Zm-1.14-.035.076-2.498a2.5 2.5 0 0 0-2.409 1.597l2.332.901Zm-.168.431-.104 2.498a2.5 2.5 0 0 0 2.436-1.596l-2.332-.902Zm-.76-.031-2.31-.956a2.5 2.5 0 0 0 2.205 3.453l.105-2.497Zm1.165-2.814.092-2.499a2.5 2.5 0 0 0-2.402 1.543l2.31.956Zm.896.033 2.386-.745a2.5 2.5 0 0 0-2.294-1.754l-.092 2.499Zm.9 2.882-.105 2.498a2.5 2.5 0 0 0 2.49-3.243l-2.386.745Zm-.761-.032-2.391.729a2.5 2.5 0 0 0 2.286 1.769l.105-2.498Zm-.317-1.046-.111 2.498a2.5 2.5 0 0 0 2.508-3.207l-2.397.71Zm-.317-1.07 2.397-.71a2.5 2.5 0 0 0-4.739-.167l2.342.876Zm-.39 1.039-2.34-.876a2.5 2.5 0 0 0 2.23 3.373l.11-2.497Zm5.418-1.38 2.481.308a2.5 2.5 0 0 0-2.18-2.79l-.3 2.483Zm-.35 2.821-.266 2.486a2.5 2.5 0 0 0 2.747-2.178l-2.48-.308Zm-.515-.055-2.147 1.28a2.5 2.5 0 0 0 1.88 1.206l.267-2.486Zm-.991-1.662 2.147-1.28a2.5 2.5 0 0 0-4.63.994l2.483.286Zm-.176 1.525-.3 2.482a2.5 2.5 0 0 0 2.783-2.196l-2.483-.286ZM32.386 50l-2.48-.308a2.5 2.5 0 0 0 2.18 2.79l.3-2.482Zm.35-2.82.266-2.487a2.5 2.5 0 0 0-2.747 2.179l2.481.307Zm.516.054 2.147-1.28a2.5 2.5 0 0 0-1.881-1.205l-.266 2.485Zm.991 1.662-2.147 1.28a2.5 2.5 0 0 0 4.63-.993l-2.483-.287Zm.176-1.525.3-2.482a2.5 2.5 0 0 0-2.784 2.196l2.484.286Zm3.901 1.255-.433 2.462a2.5 2.5 0 0 0 2.869-1.899l-2.436-.563Zm-.76-.134.434-2.462a2.5 2.5 0 0 0-2.887 1.984l2.454.478Zm-.425 2.184-.481 2.454a2.5 2.5 0 0 0 2.935-1.975l-2.454-.479Zm-.678-.133-2.454-.478a2.5 2.5 0 0 0 1.973 2.932l.48-2.453Zm.426-2.184 2.453.479a2.5 2.5 0 0 0-2.02-2.94l-.433 2.461Zm-.76-.133-2.457-.459a2.5 2.5 0 0 0 2.024 2.921l.433-2.462Zm.114-.61.443-2.46a2.5 2.5 0 0 0-2.9 2.002l2.457.458Zm2.224.4 2.436.564a2.5 2.5 0 0 0-1.993-3.024l-.443 2.46Zm2.073 2.282-1.76-1.776a2.5 2.5 0 0 0-.642 1.082l2.402.694Zm-.308 1.066-.569 2.434a2.5 2.5 0 0 0 2.97-1.74l-2.401-.694Zm-.678-.159-2.402-.693a2.5 2.5 0 0 0 1.833 3.128l.57-2.435Zm.308-1.065 2.402.693a2.5 2.5 0 0 0 .019-1.318l-2.421.625Zm-.5-1.938.59-2.43a2.5 2.5 0 0 0-3.01 3.055l2.42-.625Zm.76.184 2.442-.533a2.5 2.5 0 0 0-1.852-1.896l-.59 2.43Zm.26 1.198-2.442.534a2.5 2.5 0 0 0 4.269 1.174l-1.826-1.708Zm.85-.908.59-2.43a2.5 2.5 0 0 0-2.415.722l1.825 1.708Zm.76.184 1.759 1.777a2.5 2.5 0 0 0-1.17-4.206l-.59 2.43Zm-28.478 2.382.707-.146L13.2 46.2l-.707.146 1.014 4.896Zm-2.002-1.41.99 1.84 4.403-2.369-.99-1.84-4.403 2.369Zm5.688.775.1-2.06-4.995-.239-.099 2.06 4.994.24Zm-1.849.26.545-.123-1.099-4.878-.544.123 1.098 4.878Zm-2.171-1.315 1.044 1.815 4.334-2.494-1.045-1.814-4.334 2.493Zm5.71.622.044-2.06-4.998-.108-.045 2.06 4.999.108Zm-1.947.334.707-.147-1.015-4.896-.707.147 1.015 4.896ZM14.639 47.8l-.133 2.95 4.995.226.133-2.95-4.995-.226Zm1.815.624-.762.172 1.098 4.878.762-.172-1.098-4.878Zm1.953 1.363-.883-1.534-4.333 2.496.884 1.534 4.332-2.496Zm-5.548-.384-.069 1.754 4.997.197.069-1.755-4.997-.196Zm1.88-.586-.762.171 1.099 4.878.762-.171-1.099-4.878Zm1.95 1.356-1.526-2.633-4.326 2.508 1.526 2.633 4.326-2.508Zm3.264-2.754-1.115.143.637 4.96 1.115-.144-.637-4.96Zm-3.254 2.164-.086.457 4.915.918.086-.457-4.915-.918Zm2.061-1.565-.761.096.621 4.96.761-.094-.62-4.962Zm2.005 3.046.568-2.972-4.91-.939-.57 2.972 4.912.939Zm-1.546-.965.87-.12-.682-4.953-.87.12.682 4.953Zm-1.663-1.394 1.472 2.683 4.384-2.404-1.472-2.683-4.384 2.404Zm3.353-1-.761.096.62 4.961.762-.095-.621-4.961Zm1.796 1.48-.187-.383-4.494 2.193.187.383 4.494-2.193Zm-.528-.984-.507-.996-4.455 2.27.508.996 4.454-2.27Zm-5.194-.31-.2 1.092 4.92.898.198-1.092-4.918-.898Zm2.595 4.018.708-.096-.672-4.954-.707.096.671 4.954Zm3.325-5.296-.327.023.347 4.988.327-.023-.348-4.988Zm-2.646 2.711.074.942 4.985-.39-.074-.941-4.985.39Zm2.4-1.747-.679.045.332 4.99.68-.046-.332-4.989Zm1.977 2.321-.248-2.826-4.98.437.247 2.826 4.981-.437Zm-2.552-.114 1.224-.091-.373-4.987-1.223.092.372 4.986Zm1.238-.093a1.478 1.478 0 0 1-1.558-1.371l4.98-.441c-.185-2.102-2.065-3.313-3.824-3.171l.402 4.983Zm-1.562-1.422a1.568 1.568 0 0 1 .764-1.467l2.523 4.317c1.049-.613 1.796-1.806 1.702-3.189l-4.989.339Zm.029 2.196.752.998 3.993-3.009-.752-.998-3.993 3.009Zm2.511-2.995-.734.07.476 4.977.734-.07-.476-4.977Zm1.468 1.013-.726-.922-3.928 3.092.725.922 3.93-3.093Zm-2.841 2.577.516-.047-.449-4.98-.516.047.448 4.98Zm.602-.056a2.845 2.845 0 0 0 1.883-1.056c.512-.648.67-1.42.594-2.103l-4.97.547a2.129 2.129 0 0 1 .453-1.544 2.156 2.156 0 0 1 1.42-.806l.62 4.962ZM26 47.809c-.152-1.213-1.273-2.742-3.17-2.505l.622 4.961c-1.515.19-2.313-1.03-2.414-1.837l4.962-.62Zm-3.083-2.514-.516.046.448 4.98.517-.046-.449-4.98Zm-2.78 2.79.076.738 4.974-.507-.075-.738-4.974.507Zm6.33-1.652-.326-.003-.042 5 .326.003.042-5Zm-2.846 2.548.019.942 4.999-.102-.02-.942-4.998.102Zm2.45-1.608-.707.019.138 4.998.706-.02-.138-4.997Zm1.86 2.444-.084-2.85-4.998.148.085 2.85 4.998-.148Zm-2.5-.277 1.223-.04-.166-4.998-1.223.04.166 4.998Zm1.23-.04a1.471 1.471 0 0 1-1.51-1.443l4.996-.212c-.085-2.004-1.82-3.41-3.666-3.343l.18 4.997Zm-1.511-1.57a1.606 1.606 0 0 1 .977-1.447l1.945 4.606c1.35-.57 2.067-1.85 2.078-3.117l-5-.042Zm-.142 2.226.67 1.023 4.183-2.74-.67-1.023-4.183 2.74Zm2.7-2.846-.761.019.125 4.998.76-.019-.125-4.998Zm1.417 1.187-.563-.895-4.232 2.662.563.895 4.232-2.662Zm-2.898 2.371.516-.02-.204-4.996-.516.02.204 4.996Zm.393-.019a2.838 2.838 0 0 0 2.831-3.188l-4.961.62a2.162 2.162 0 0 1 2.172-2.431l-.042 5Zm2.85-2.857a2.853 2.853 0 0 0-2.829-2.88l-.042 5a2.147 2.147 0 0 1-2.129-2.162l5 .042Zm-2.952-2.878-.516.02.204 4.997.516-.021-.204-4.996Zm-2.913 2.59.02.738 4.999-.142-.021-.738-4.998.142Zm7.043-.726-1.141-.035-.154 4.997 1.141.035.154-4.997Zm-3.55 1.562-.166.431 4.663 1.803.167-.431-4.664-1.803Zm2.27-1.165-.76-.032-.21 4.995.76.032.21-4.995Zm1.445 3.422 1.165-2.814-4.62-1.912-1.165 2.814 4.62 1.912Zm-1.237-1.272.896.033.184-4.997-.896-.033-.184 4.997Zm-1.399-1.72.9 2.882 4.773-1.49-.9-2.882-4.773 1.49Zm3.39-.361-.76-.032-.209 4.996.76.032.21-4.996Zm1.527 1.737-.132-.434-4.783 1.459.133.433 4.782-1.458Zm-.311-1.026-.317-1.071-4.794 1.419.316 1.07 4.795-1.418Zm-5.056-1.238-.389 1.04 4.683 1.752.39-1.04-4.684-1.752Zm1.842 4.413.706.032.222-4.995-.706-.032-.222 4.995Zm3.047-4.184-.35 2.82 4.962.616.35-2.82-4.962-.616Zm2.398.642-.516-.055-.532 4.972.515.055.533-4.972Zm1.365 1.15-.991-1.662-4.294 2.562.99 1.661 4.295-2.56Zm-5.622-.667-.176 1.525 4.967.572.176-1.525-4.967-.572Zm2.608-.671-.678-.082-.6 4.964.678.082.6-4.964Zm1.502 2.707.35-2.82-4.962-.615-.35 2.82 4.962.615Zm-2.397-.642.516.055.532-4.971-.516-.056-.532 4.972Zm-1.365-1.15.99 1.662 4.295-2.561-.991-1.662-4.294 2.561Zm5.622.668.175-1.525-4.967-.573-.176 1.525 4.968.573Zm-2.608.67.678.082.6-4.964-.678-.081-.6 4.963Zm4.634-3.69-.76-.133-.865 4.925.76.133.865-4.924Zm-3.646 1.85-.426 2.185 4.908.957.425-2.184-4.907-.957Zm2.509.21-.678-.133-.962 4.907.678.133.962-4.907Zm1.294 2.799.426-2.184-4.907-.957-.426 2.184 4.907.957Zm-1.594-5.125-.76-.133-.866 4.924.76.134.866-4.925Zm1.265 2.788.113-.61-4.915-.918-.113.61 4.915.918Zm-2.787 1.392 2.224.4.886-4.92-2.224-.401-.886 4.92Zm.232-2.624-.142.61 4.872 1.126.14-.609-4.87-1.127Zm2.106 2.151-.308 1.066 4.804 1.387.308-1.066-4.804-1.387Zm2.663-.675-.678-.158-1.138 4.869.678.158 1.138-4.869Zm1.155 2.97.308-1.066-4.804-1.387-.308 1.066 4.804 1.387Zm.327-2.384-.5-1.937-4.842 1.249.5 1.937 4.842-1.249Zm-3.511 1.116.759.185 1.18-4.859-.759-.184-1.18 4.858Zm-1.093-1.711.261 1.198 4.885-1.067-.261-1.198-4.885 1.067Zm4.53 2.372.85-.909-3.652-3.415-.85.909 3.652 3.415Zm-1.567-.187.76.184 1.18-4.858-.76-.185-1.18 4.859Zm-.41-4.021-1.451 1.438 3.518 3.552 1.452-1.437-3.518-3.553Z" mask="url(#path-21-outside-1_63_205)"/><defs><linearGradient id="paint0_linear_63_205" x1="6.225" x2="49.734" y1="26.499" y2="26.499" gradientUnits="userSpaceOnUse"><stop stop-color="#A57D24"/><stop offset=".211" stop-color="#D8BE62"/><stop offset=".328" stop-color="#F1DD80"/><stop offset=".524" stop-color="#FBF2A8"/><stop offset=".73" stop-color="#F1DD80"/><stop offset="1" stop-color="#A57D24"/></linearGradient><linearGradient id="paint1_linear_63_205" x1="5.983" x2="49.977" y1="26.502" y2="26.502" gradientUnits="userSpaceOnUse"><stop stop-color="#F1DD80"/><stop offset=".204" stop-color="#A57D24"/><stop offset=".268" stop-color="#A88128"/><stop offset=".329" stop-color="#B18C33"/><stop offset=".39" stop-color="#C1A045"/><stop offset=".45" stop-color="#D6BB5F"/><stop offset=".508" stop-color="#F1DD80"/><stop offset=".519" stop-color="#FBF2A8"/><stop offset=".593" stop-color="#F1DD80"/><stop offset=".843" stop-color="#A57D24"/><stop offset=".944" stop-color="#D8BE62"/><stop offset="1" stop-color="#F1DD80"/></linearGradient><linearGradient id="paint2_linear_63_205" x1="11.617" x2="44.379" y1="26.95" y2="26.95" gradientUnits="userSpaceOnUse"><stop stop-color="#F1DD80"/><stop offset=".204" stop-color="#A57D24"/><stop offset=".268" stop-color="#A88128"/><stop offset=".329" stop-color="#B18C33"/><stop offset=".39" stop-color="#C1A045"/><stop offset=".45" stop-color="#D6BB5F"/><stop offset=".508" stop-color="#F1DD80"/><stop offset=".519" stop-color="#FBF2A8"/><stop offset=".593" stop-color="#F1DD80"/><stop offset=".843" stop-color="#A57D24"/><stop offset=".944" stop-color="#D8BE62"/><stop offset="1" stop-color="#F1DD80"/></linearGradient><linearGradient id="paint3_linear_63_205" x1="28.552" x2="28.552" y1="50.391" y2="40.065" gradientUnits="userSpaceOnUse"><stop/><stop offset=".01" stop-color="#040404"/><stop offset=".229" stop-color="#4F4F4F"/><stop offset=".434" stop-color="#8D8D8D"/><stop offset=".62" stop-color="#BEBEBE"/><stop offset=".782" stop-color="#E2E2E2"/><stop offset=".914" stop-color="#F7F7F7"/><stop offset="1" stop-color="#fff"/></linearGradient><linearGradient id="paint4_linear_63_205" x1="28.552" x2="28.552" y1="50.391" y2="40.065" gradientUnits="userSpaceOnUse"><stop stop-color="#fff"/><stop offset=".01" stop-color="#FBFBFB"/><stop offset=".229" stop-color="#B0B0B0"/><stop offset=".434" stop-color="#727272"/><stop offset=".62" stop-color="#414141"/><stop offset=".782" stop-color="#1D1D1D"/><stop offset=".914" stop-color="#080808"/><stop offset="1"/></linearGradient><linearGradient id="paint5_linear_63_205" x1="43.134" x2="54.662" y1="45.443" y2="45.443" gradientUnits="userSpaceOnUse"><stop stop-color="#A57D24"/><stop offset=".211" stop-color="#D8BE62"/><stop offset=".328" stop-color="#F1DD80"/><stop offset=".524" stop-color="#FBF2A8"/><stop offset=".73" stop-color="#F1DD80"/><stop offset="1" stop-color="#A57D24"/></linearGradient><linearGradient id="paint6_linear_63_205" x1="42.925" x2="55" y1="45.668" y2="45.668" gradientUnits="userSpaceOnUse"><stop stop-color="#F1DD80"/><stop offset=".204" stop-color="#A57D24"/><stop offset=".268" stop-color="#A88128"/><stop offset=".329" stop-color="#B18C33"/><stop offset=".39" stop-color="#C1A045"/><stop offset=".45" stop-color="#D6BB5F"/><stop offset=".508" stop-color="#F1DD80"/><stop offset=".519" stop-color="#FBF2A8"/><stop offset=".593" stop-color="#F1DD80"/><stop offset=".843" stop-color="#A57D24"/><stop offset=".944" stop-color="#D8BE62"/><stop offset="1" stop-color="#F1DD80"/></linearGradient><linearGradient id="paint7_linear_63_205" x1="42.91" x2="47.148" y1="47.904" y2="47.904" gradientUnits="userSpaceOnUse"><stop stop-color="#F1DD80"/><stop offset=".204" stop-color="#A57D24"/><stop offset=".268" stop-color="#A88128"/><stop offset=".329" stop-color="#B18C33"/><stop offset=".39" stop-color="#C1A045"/><stop offset=".45" stop-color="#D6BB5F"/><stop offset=".508" stop-color="#F1DD80"/><stop offset=".519" stop-color="#FBF2A8"/><stop offset=".593" stop-color="#F1DD80"/><stop offset=".843" stop-color="#A57D24"/><stop offset=".944" stop-color="#D8BE62"/><stop offset="1" stop-color="#F1DD80"/></linearGradient><linearGradient id="paint8_linear_63_205" x1="-5.559" x2="7.71" y1="45.599" y2="45.599" gradientUnits="userSpaceOnUse"><stop stop-color="#A57D24"/><stop offset=".211" stop-color="#D8BE62"/><stop offset=".328" stop-color="#F1DD80"/><stop offset=".524" stop-color="#FBF2A8"/><stop offset=".73" stop-color="#F1DD80"/><stop offset="1" stop-color="#A57D24"/></linearGradient><linearGradient id="paint9_linear_63_205" x1="0" x2="12.156" y1="45.825" y2="45.825" gradientUnits="userSpaceOnUse"><stop stop-color="#F1DD80"/><stop offset=".204" stop-color="#A57D24"/><stop offset=".268" stop-color="#A88128"/><stop offset=".329" stop-color="#B18C33"/><stop offset=".39" stop-color="#C1A045"/><stop offset=".45" stop-color="#D6BB5F"/><stop offset=".508" stop-color="#F1DD80"/><stop offset=".519" stop-color="#FBF2A8"/><stop offset=".593" stop-color="#F1DD80"/><stop offset=".843" stop-color="#A57D24"/><stop offset=".944" stop-color="#D8BE62"/><stop offset="1" stop-color="#F1DD80"/></linearGradient><linearGradient id="paint10_linear_63_205" x1="5.328" x2="49.673" y1="40.628" y2="40.628" gradientUnits="userSpaceOnUse"><stop stop-color="#A57D24"/><stop offset=".211" stop-color="#D8BE62"/><stop offset=".328" stop-color="#F1DD80"/><stop offset=".524" stop-color="#FBF2A8"/><stop offset=".73" stop-color="#F1DD80"/><stop offset="1" stop-color="#A57D24"/></linearGradient><linearGradient id="paint11_linear_63_205" x1="7.915" x2="12.172" y1="47.992" y2="47.992" gradientUnits="userSpaceOnUse"><stop stop-color="#F1DD80"/><stop offset=".204" stop-color="#A57D24"/><stop offset=".268" stop-color="#A88128"/><stop offset=".329" stop-color="#B18C33"/><stop offset=".39" stop-color="#C1A045"/><stop offset=".45" stop-color="#D6BB5F"/><stop offset=".508" stop-color="#F1DD80"/><stop offset=".519" stop-color="#FBF2A8"/><stop offset=".593" stop-color="#F1DD80"/><stop offset=".843" stop-color="#A57D24"/><stop offset=".944" stop-color="#D8BE62"/><stop offset="1" stop-color="#F1DD80"/></linearGradient><linearGradient id="paint12_linear_63_205" x1="5.114" x2="49.909" y1="40.862" y2="40.862" gradientUnits="userSpaceOnUse"><stop stop-color="#F1DD80"/><stop offset=".204" stop-color="#A57D24"/><stop offset=".268" stop-color="#A88128"/><stop offset=".329" stop-color="#B18C33"/><stop offset=".39" stop-color="#C1A045"/><stop offset=".45" stop-color="#D6BB5F"/><stop offset=".508" stop-color="#F1DD80"/><stop offset=".519" stop-color="#FBF2A8"/><stop offset=".593" stop-color="#F1DD80"/><stop offset=".843" stop-color="#A57D24"/><stop offset=".944" stop-color="#D8BE62"/><stop offset="1" stop-color="#F1DD80"/></linearGradient></defs></svg>